<svg xmlns="http://www.w3.org/2000/svg" viewBox="0 0 64 64" role="img" aria-labelledby="title">
  <title id="title">Python Playground</title>
  <rect width="64" height="64" rx="14" fill="#1f2937"/>
  <path d="M31.5 9c-8.1 0-11.4 3.1-11.4 8.9v4.3h12.2v2.7H15.8C10.9 24.9 7 28.5 7 35.5 7 42.7 11.1 47 16.1 47h5.5v-7.8c0-5.7 4.9-10.7 10.7-10.7h10.5c4.5 0 8.2-3.7 8.2-8.2V17.9C51 12.3 46.4 9 39.6 9h-8.1Z" fill="#3776ab"/>
  <path d="M32.5 55c8.1 0 11.4-3.1 11.4-8.9v-4.3H31.7v-2.7h16.5c4.9 0 8.8-3.6 8.8-10.6C57 21.3 52.9 17 47.9 17h-5.5v7.8c0 5.7-4.9 10.7-10.7 10.7H21.2c-4.5 0-8.2 3.7-8.2 8.2v2.4C13 51.7 17.6 55 24.4 55h8.1Z" fill="#ffd343"/>
  <circle cx="25.5" cy="16.8" r="2.2" fill="#fff"/>
  <circle cx="38.5" cy="47.2" r="2.2" fill="#1f2937"/>
</svg>
